%FSLAX44Y44*%
%MOMM*%
%SFA1B1*%

%IPPOS*%
%AMD13*
4,1,4,-1.059180,0.000000,0.000000,-1.059180,1.059180,0.000000,0.000000,1.059180,-1.059180,0.000000,0.0*
%
%AMD14*
4,1,4,0.000000,1.059180,-1.059180,0.000000,0.000000,-1.059180,1.059180,0.000000,0.000000,1.059180,0.0*
%
%ADD10C,0.499999*%
%ADD11R,1.499997X1.499997*%
%ADD12C,1.499997*%
G04~CAMADD=13~10~0.0~590.5~0.0~0.0~0.0~0.0~0~0.0~0.0~0.0~0.0~0~0.0~0.0~0.0~0.0~0~0.0~0.0~0.0~135.0~590.5~0.0*
%ADD13D13*%
G04~CAMADD=14~10~0.0~590.5~0.0~0.0~0.0~0.0~0~0.0~0.0~0.0~0.0~0~0.0~0.0~0.0~0.0~0~0.0~0.0~0.0~405.0~590.5~0.0*
%ADD14D14*%
%ADD15R,1.499997X1.499997*%
%ADD16R,1.499997X1.499997*%
%ADD17C,1.499997*%
%ADD18C,0.999998*%
%LNpcb1_copper_signal_top-1*%
%LPD*%
G54D10*
X717447Y834999D02*
X1039977D01*
X1099999Y895021*
Y1555500*
X1240536Y1696036*
Y1747063*
X1225399Y1762199*
Y1787599D02*
X1251966Y1761033D01*
Y1672082*
X1299999Y1729999D02*
Y990548D01*
X1297686Y988234*
X1347960Y937960*
X1365920Y955920D02*
Y998890D01*
X1407922Y1040892*
Y1997456*
X1395222Y1896021D02*
Y2130977D01*
X1379999Y2146199*
Y2069999D02*
X1319999Y2009999D01*
Y1846199*
Y1820799D02*
X1395222Y1896021D01*
X1303020Y1966819D02*
Y2438400D01*
X1335024Y2470404*
Y2566416*
X1301806Y2599632*
Y2614049*
X1284637Y2631218*
Y2715802*
X1299718Y2730882*
Y2779717*
X1329999Y2809999*
X1355399D02*
Y2835399D01*
X1329999D02*
X1305052D01*
X1274637Y2804985*
Y2570761*
X1319999Y2525399*
X1268476*
X1244346Y2501269*
Y1958945*
X1225399Y1939999*
Y1889199D02*
X1303020Y1966819D01*
X1245362Y1870202D02*
X1264666Y1850898D01*
Y1104138*
X1075690Y950289D02*
Y1561689D01*
X1225399Y1711399*
X1199999Y1787599D02*
X1134872Y1852727D01*
Y1898904*
X1117600Y1916176*
X1092200*
X1076706Y1900682*
Y1842262*
X924560Y1690116*
X863600*
X854456Y1699260*
Y2639822*
X907034Y2692400*
Y2886456*
X1014599Y2781423D02*
Y3169999D01*
X989199D02*
X891540Y3072339D01*
Y2718476*
X754888Y2581824*
Y1921711*
X762000Y1914599*
X769999*
Y1939999D02*
X838454Y2008453D01*
Y2609850*
X884428Y2651252D02*
X1014599Y2781423D01*
X1039999Y2759999D02*
Y3169999D01*
X1062736Y3190240D02*
X1145032Y3107944D01*
Y1867967*
X1199999Y1812999*
Y1838399D02*
X1157732Y1880667D01*
Y2360676*
X1129999Y2355699D02*
Y2669999D01*
X1039999Y2759999*
X1079199Y2669999D02*
X908799Y2499599D01*
Y2286899*
X909828Y2285870*
Y1714500*
X897128Y1701800*
X891286Y1707642*
X867156*
X884428Y1732214D02*
Y2651252D01*
X1086199Y2651600D02*
X1104599Y2669999D01*
X1086199Y2651600D02*
Y2388099D01*
X1060799D02*
X1045551Y2403348D01*
X927100*
X918799Y2395047*
Y2297093*
X959999Y2255893*
Y1909999*
X1035399Y1858675D02*
Y2311899D01*
X1009999D02*
X1069443Y2371344D01*
X1100836*
X1117092Y2387600*
Y2590800*
X1294638Y2635361D02*
Y2711637D01*
X1319999Y2736999*
Y2711599D02*
X1335024Y2696575D01*
Y2675823*
X1319999Y2660799*
X1304798Y2650601D02*
X1319999Y2635399D01*
Y2609999D02*
X1294638Y2635361D01*
X1304798Y2650601D02*
Y2670997D01*
X1319999Y2686199*
X1459230Y2782369D02*
Y1798828D01*
X1199999Y1889199D02*
X1184910Y1904289D01*
Y2100225*
X1205484Y2120799*
X1105916Y1902460D02*
Y1815846D01*
X999998Y1709928*
Y1651000*
X1016000Y1634998*
Y1611349*
X1009650Y1604999*
X914400*
X899399Y1619999*
X873999D02*
Y1610373D01*
X889373Y1594999*
X1016000*
X1025999Y1604999*
Y1689259*
X1020572Y1694688*
X935482Y1677670D02*
X950199Y1662951D01*
Y1619999*
X924799D02*
X873464Y1671333D01*
X850091*
X838708Y1682718*
Y1795091*
X795399Y1838399*
Y1762199D02*
X810514Y1747085D01*
Y1683513*
X746999Y1619999*
X721599D02*
Y1680718D01*
X721360Y1680957*
Y1797050*
X728829Y1804519*
X736118*
X769999Y1838399*
Y1787599D02*
X735889D01*
X734060Y1789430*
X670814Y1790013D02*
X769999Y1889199D01*
X670814Y1790013D02*
Y1722882D01*
X696199Y1657350D02*
Y1619999D01*
X670799D02*
X673880Y1616917D01*
Y916118*
X645399Y995399D02*
Y1619999D01*
Y2124599*
X619999Y2149999*
X604774Y2089025D02*
Y2639373D01*
X679999Y2714599*
X640485*
X609199Y2745885*
Y2959999*
X635399Y2986199*
Y3049999*
Y3084576*
X614599Y3105375*
Y3139999*
X639999D02*
X660799Y3119199D01*
Y3049999*
X679999Y3030799*
Y2739999*
Y2619999D02*
X705358Y2594641D01*
Y2518357*
X679999Y2492999*
Y2518399D02*
X664972Y2533427D01*
Y2554171*
X679999Y2569199*
Y2543799D02*
X695198Y2558997D01*
Y2579401*
X679999Y2594599*
X984599Y2311899D02*
X1009999Y2337299D01*
Y2388099*
X1086199Y2311899D02*
X1129999Y2355699D01*
X1459230Y2782369D02*
X1406199Y2835399D01*
X1380799D02*
Y2809999D01*
X1062736Y3190240D02*
X939439D01*
X759999Y3010799*
X604774Y2089025D02*
X619999Y2073799D01*
Y2062747*
X620014Y2062734*
Y1620013*
X619999Y1619999*
X827278Y1361948D02*
Y962601D01*
X944880Y844999*
X995799*
X1010799Y859999*
X985399D02*
X1075690Y950289D01*
X717447Y834999D02*
X637960Y914486D01*
Y952039*
X619999Y969999D02*
X645399Y995399D01*
X884428Y1732214D02*
X897128Y1719514D01*
X1035399Y1858675D02*
X1045972Y1848104D01*
G54D11*
X959999Y859999D03*
X619999Y1619999D03*
X1129999Y2669999D03*
X1329999Y2809999D03*
X1039999Y3169999D03*
X659999Y2959999D03*
X609999Y3049999D03*
X639999Y3139999D03*
G54D12*
X673880Y916118D03*
X655920Y934078D03*
X637960Y952039D03*
X985399Y859999D03*
X1010799D03*
X1036199D03*
X1347960Y937960D03*
X1365920Y955920D03*
X1383880Y973881D03*
X1000999Y1619999D03*
X975599D03*
X950199D03*
X924799D03*
X899399D03*
X873999D03*
X848599D03*
X823199D03*
X797799D03*
X772399D03*
X746999D03*
X721599D03*
X696199D03*
X670799D03*
X645399D03*
X769999Y1711399D03*
Y1736799D03*
X795399D03*
Y1711399D03*
Y1762199D03*
Y1787599D03*
Y1812999D03*
Y1838399D03*
Y1863799D03*
Y1889199D03*
Y1914599D03*
Y1939999D03*
X769999Y1914599D03*
Y1889199D03*
Y1863799D03*
Y1838399D03*
Y1812999D03*
Y1787599D03*
Y1762199D03*
X619999Y2073799D03*
Y2099199D03*
Y2124599D03*
X679999Y2492999D03*
Y2518399D03*
Y2543799D03*
Y2569199D03*
Y2594599D03*
Y2689199D03*
Y2714599D03*
X759999Y2985399D03*
Y3010799D03*
Y3036199D03*
X660799Y3049999D03*
X635399D03*
X634599Y2959999D03*
X609199D03*
X614599Y3139999D03*
X963799Y3169999D03*
X989199D03*
X1014599D03*
X1329999Y2835399D03*
X1355399D03*
Y2809999D03*
X1319999Y2736999D03*
Y2711599D03*
Y2686199D03*
Y2660799D03*
Y2635399D03*
Y2550799D03*
Y2525399D03*
X1104599Y2669999D03*
X1079199D03*
X1053799D03*
X1380799Y2809999D03*
X1406199D03*
Y2835399D03*
X1380799D03*
X1379999Y2146199D03*
Y2120799D03*
Y2095399D03*
X1225399Y1939999D03*
Y1914599D03*
X1199999D03*
Y1889199D03*
X1225399D03*
Y1863799D03*
X1199999D03*
Y1838399D03*
X1225399D03*
Y1812999D03*
X1199999D03*
Y1787599D03*
Y1762199D03*
X1225399D03*
Y1787599D03*
Y1736799D03*
X1199999D03*
Y1711399D03*
X1225399D03*
X1319999Y1795399D03*
Y1820799D03*
Y1846199D03*
G54D13*
X1329999Y919999D03*
G54D14*
X619999Y969999D03*
G54D15*
X1319999Y1769999D03*
X1199999Y1939999D03*
X1379999Y2069999D03*
X1319999Y2499999D03*
Y2609999D03*
X759999Y2959999D03*
X679999Y2739999D03*
Y2619999D03*
X619999Y2149999D03*
X769999Y1939999D03*
G54D16*
X1086199Y2388099D03*
G54D17*
X1060799Y2311899D03*
X1086199D03*
X1060799Y2388099D03*
X1035399D03*
X1009999D03*
X984599D03*
Y2311899D03*
X1009999D03*
X1035399D03*
X959199Y2388099D03*
X933799D03*
Y2311899D03*
X959199D03*
G54D18*
X1264666Y1104138D03*
X827278Y1361948D03*
X935482Y1677670D03*
X1020572Y1694688D03*
X1045972Y1848104D03*
X1105916Y1902460D03*
X1245362Y1870202D03*
X1299999Y1729999D03*
X1251966Y1672082D03*
X1459230Y1798828D03*
X1407922Y1997456D03*
X1205484Y2120799D03*
X1157732Y2360676D03*
X1117092Y2590800D03*
X907034Y2886456D03*
X838454Y2609850D03*
X959999Y1909999D03*
X897128Y1719514D03*
X867156Y1707642D03*
X734060Y1789430D03*
X670814Y1722882D03*
X696199Y1657350D03*
M02*